<?xml version="1.0" encoding="UTF-8" standalone="no"?>
<!-- Created with Inkscape (http://www.inkscape.org/) -->

<svg
   xmlns:dc="http://purl.org/dc/elements/1.1/"
   xmlns:cc="http://creativecommons.org/ns#"
   xmlns:rdf="http://www.w3.org/1999/02/22-rdf-syntax-ns#"
   xmlns:svg="http://www.w3.org/2000/svg"
   xmlns="http://www.w3.org/2000/svg"
   xmlns:sodipodi="http://sodipodi.sourceforge.net/DTD/sodipodi-0.dtd"
   xmlns:inkscape="http://www.inkscape.org/namespaces/inkscape"
   width="793.70081"
   height="530.51971"
   viewBox="0 0 210 140.36667"
   version="1.1"
   id="svg8"
   sodipodi:docname="gruashercules-logo.svg"
   inkscape:version="0.92.1 r">
  <defs
     id="defs2" />
  <sodipodi:namedview
     id="base"
     pagecolor="#ffffff"
     bordercolor="#666666"
     borderopacity="1.0"
     inkscape:pageopacity="0.0"
     inkscape:pageshadow="2"
     inkscape:zoom="0.7"
     inkscape:cx="370.67347"
     inkscape:cy="273.04371"
     inkscape:document-units="mm"
     inkscape:current-layer="layer1"
     showgrid="false"
     inkscape:window-width="1920"
     inkscape:window-height="1016"
     inkscape:window-x="0"
     inkscape:window-y="27"
     inkscape:window-maximized="1"
     units="px" />
  <metadata
     id="metadata5">
    <rdf:RDF>
      <cc:Work
         rdf:about="">
        <dc:format>image/svg+xml</dc:format>
        <dc:type
           rdf:resource="http://purl.org/dc/dcmitype/StillImage" />
        <dc:title></dc:title>
      </cc:Work>
    </rdf:RDF>
  </metadata>
  <g
     inkscape:label="Capa 1"
     inkscape:groupmode="layer"
     id="layer1"
     transform="translate(0,-156.63333)">
    <g
       id="g4748"
       transform="translate(0.33211999,157.45514)">
      <path
         inkscape:connector-curvature="0"
         id="path4700"
         d="m 31.744484,120.44395 c -2.272621,0.0385 -4.501116,0.91624 -6.122852,2.53979 -1.726018,1.72795 -2.558655,3.62044 -2.651857,6.02709 -0.05465,1.4113 0.05082,2.21859 0.432306,3.31139 1.049392,3.00598 3.541724,5.20638 6.66397,5.88327 1.11465,0.24165 2.930903,0.20299 4.036649,-0.086 2.599796,-0.67941 4.646086,-2.32851 5.828868,-4.69739 0.729484,-1.46101 0.982559,-2.66859 0.918333,-4.38315 -0.05205,-1.38948 -0.266624,-2.29851 -0.818622,-3.46807 -0.47435,-1.00505 -0.973578,-1.7136 -1.76493,-2.50495 -0.791356,-0.79137 -1.499911,-1.29041 -2.504951,-1.76476 -1.273945,-0.60127 -2.653342,-0.88035 -4.016914,-0.85724 z m 0.242669,3.87276 c 1.313672,7.7e-4 2.630263,0.51626 3.659088,1.54508 1.631324,1.63133 1.99884,3.96548 0.9518,6.04494 -0.623942,1.23916 -2.016952,2.33296 -3.380723,2.65442 -0.693184,0.16338 -1.798104,0.16156 -2.482469,-0.004 -1.764632,-0.42717 -3.368869,-2.04678 -3.787802,-3.82402 -0.417738,-1.77217 0.09521,-3.56038 1.39904,-4.87741 1.016775,-1.02708 2.327395,-1.54003 3.641066,-1.53891 z"
         style="fill:#007cc2;fill-opacity:1;stroke-width:0.08786892" />
      <path
         inkscape:connector-curvature="0"
         id="path4696"
         d="m 31.220822,133.0245 c -1.767333,-0.36604 -3.051345,-2.06273 -2.887649,-3.81573 0.139089,-1.48943 1.126002,-2.7061 2.544617,-3.13699 1.708909,-0.51906 3.519999,0.31131 4.285135,1.96471 0.268084,0.5793 0.296342,0.71656 0.294755,1.43155 -0.0013,0.60315 -0.04721,0.90551 -0.193311,1.2741 -0.38066,0.96038 -1.165476,1.7584 -2.057578,2.09218 -0.562402,0.21042 -1.469043,0.29724 -1.985969,0.19018 z"
         style="fill:#007cc2;fill-opacity:1;stroke-width:0.08786892" />
      <path
         inkscape:connector-curvature="0"
         id="path4694"
         d="m 54.941879,120.44395 c -2.272619,0.0385 -4.501113,0.91624 -6.12285,2.53979 -1.726015,1.72795 -2.558659,3.62044 -2.651857,6.02709 -0.05466,1.4113 0.05081,2.21859 0.432309,3.31139 1.049392,3.00598 3.541718,5.20638 6.663965,5.88327 1.114643,0.24165 2.930907,0.20299 4.036649,-0.086 2.599803,-0.67941 4.646081,-2.32851 5.828868,-4.69739 0.729477,-1.46101 0.982559,-2.66859 0.918333,-4.38315 -0.05205,-1.38948 -0.266621,-2.29851 -0.818622,-3.46807 -0.47435,-1.00505 -0.973575,-1.7136 -1.76493,-2.50495 -0.791348,-0.79137 -1.499907,-1.29041 -2.50495,-1.76476 -1.273943,-0.60127 -2.653342,-0.88035 -4.016915,-0.85724 z m 0.24267,3.87276 c 1.31367,7.7e-4 2.630261,0.51626 3.659088,1.54508 1.63132,1.63133 1.998844,3.96548 0.951799,6.04494 -0.623941,1.23916 -2.016951,2.33296 -3.380722,2.65442 -0.693189,0.16338 -1.798104,0.16156 -2.482469,-0.004 -1.764629,-0.42717 -3.368871,-2.04678 -3.787802,-3.82402 -0.41774,-1.77217 0.09522,-3.56038 1.399037,-4.87741 1.01678,-1.02708 2.327398,-1.54003 3.641069,-1.53891 z"
         style="fill:#007cc2;fill-opacity:1;stroke-width:0.08786892" />
      <path
         inkscape:connector-curvature="0"
         id="path4690"
         d="m 54.418218,133.0245 c -1.767333,-0.36604 -3.051345,-2.06273 -2.887645,-3.81573 0.139081,-1.48943 1.125998,-2.7061 2.544613,-3.13699 1.708912,-0.51906 3.519996,0.31131 4.285142,1.96471 0.268077,0.5793 0.296335,0.71656 0.294744,1.43155 -0.0013,0.60315 -0.04721,0.90551 -0.19331,1.2741 -0.380657,0.96038 -1.165476,1.7584 -2.057575,2.09218 -0.562402,0.21042 -1.469044,0.29724 -1.985969,0.19018 z"
         style="fill:#007cc2;fill-opacity:1;stroke-width:0.08786892" />
      <path
         inkscape:connector-curvature="0"
         id="path4688"
         d="m 125.23703,120.44395 c -2.27263,0.0385 -4.50112,0.91624 -6.12286,2.53979 -1.726,1.72795 -2.55865,3.62044 -2.65186,6.02709 -0.0546,1.4113 0.0508,2.21859 0.43231,3.31139 1.04939,3.00598 3.54173,5.20638 6.66397,5.88327 1.11465,0.24165 2.9309,0.20299 4.03665,-0.086 2.59981,-0.67941 4.64608,-2.32851 5.82887,-4.69739 0.72948,-1.46101 0.98255,-2.66859 0.91833,-4.38315 -0.052,-1.38948 -0.26662,-2.29851 -0.81862,-3.46807 -0.47435,-1.00505 -0.97357,-1.7136 -1.76494,-2.50495 -0.79134,-0.79137 -1.4999,-1.29041 -2.50494,-1.76476 -1.27395,-0.60127 -2.65334,-0.88035 -4.01691,-0.85724 z m 0.24266,3.87276 c 1.31367,7.7e-4 2.63026,0.51626 3.65909,1.54508 1.63132,1.63133 1.99885,3.96548 0.9518,6.04494 -0.62394,1.23916 -2.01695,2.33296 -3.38073,2.65442 -0.69318,0.16338 -1.79809,0.16156 -2.48246,-0.004 -0.8378,-0.20281 -1.70032,-0.70648 -2.38876,-1.39492 -2.06147,-2.06147 -2.06147,-5.22416 0,-7.30651 1.01678,-1.02708 2.32739,-1.54003 3.64106,-1.53891 z"
         style="fill:#007cc2;fill-opacity:1;stroke-width:0.08786892" />
      <path
         inkscape:connector-curvature="0"
         id="path4684"
         d="m 124.71336,133.0245 c -1.76733,-0.36604 -3.05134,-2.06273 -2.88765,-3.81573 0.13908,-1.48943 1.126,-2.7061 2.54462,-3.13699 1.70891,-0.51906 3.51999,0.31131 4.28514,1.96471 0.26808,0.5793 0.29633,0.71656 0.29475,1.43155 -0.002,0.60315 -0.0472,0.90551 -0.19332,1.2741 -0.38065,0.96038 -1.16547,1.7584 -2.05757,2.09218 -0.5624,0.21042 -1.46905,0.29724 -1.98597,0.19018 z"
         style="fill:#007cc2;fill-opacity:1;stroke-width:0.08786892" />
      <path
         inkscape:connector-curvature="0"
         id="path4682"
         d="m 148.43442,120.44395 c -2.27262,0.0385 -4.50111,0.91624 -6.12285,2.53979 -1.72601,1.72795 -2.55865,3.62044 -2.65186,6.02709 -0.0546,1.4113 0.0508,2.21859 0.43231,3.31139 1.04939,3.00598 3.54172,5.20638 6.66396,5.88327 1.11465,0.24165 2.93091,0.20299 4.03666,-0.086 2.5998,-0.67941 4.64608,-2.32851 5.82886,-4.69739 0.72948,-1.46101 0.98256,-2.66859 0.91834,-4.38315 -0.052,-1.38948 -0.26662,-2.29851 -0.81862,-3.46807 -0.47436,-1.00505 -0.97358,-1.7136 -1.76493,-2.50495 -0.79136,-0.79137 -1.49991,-1.29041 -2.50496,-1.76476 -1.27394,-0.60127 -2.65334,-0.88035 -4.01691,-0.85724 z m 0.24267,3.87276 c 1.31367,7.7e-4 2.63026,0.51626 3.65909,1.54508 1.63132,1.63133 1.99884,3.96548 0.9518,6.04494 -0.62394,1.23916 -2.01696,2.33296 -3.38073,2.65442 -0.69319,0.16338 -1.7981,0.16156 -2.48247,-0.004 -0.83779,-0.20281 -1.70032,-0.70648 -2.38876,-1.39492 -1.02159,-1.02159 -1.53153,-2.23696 -1.53153,-3.65017 0,-1.40949 0.50817,-2.6226 1.53153,-3.65634 1.01678,-1.02708 2.3274,-1.54003 3.64107,-1.53891 z"
         style="fill:#007cc2;fill-opacity:1;stroke-width:0.08786892" />
      <path
         inkscape:connector-curvature="0"
         id="path4678"
         d="m 147.91076,133.0245 c -1.76733,-0.36604 -3.05135,-2.06273 -2.88765,-3.81573 0.13908,-1.48943 1.126,-2.7061 2.54461,-3.13699 1.70892,-0.51906 3.52,0.31131 4.28514,1.96471 0.26808,0.5793 0.29634,0.71656 0.29475,1.43155 -0.002,0.60315 -0.0472,0.90551 -0.19331,1.2741 -0.38066,0.96038 -1.16548,1.7584 -2.05757,2.09218 -0.56241,0.21042 -1.46905,0.29724 -1.98597,0.19018 z"
         style="fill:#007cc2;fill-opacity:1;stroke-width:0.08786892" />
      <path
         inkscape:connector-curvature="0"
         id="path4676"
         d="m 42.364685,129.4241 v -4.2177 h 1.054427 1.054427 v 4.2177 4.21771 h -1.054427 -1.054427 z"
         style="fill:#007cc2;fill-opacity:1;stroke-width:0.08786892" />
      <path
         inkscape:connector-curvature="0"
         id="path4674"
         d="m 136.03296,129.4241 v -4.2177 h 1.05443 1.05442 v 4.2177 4.21771 h -1.05442 -1.05443 z"
         style="fill:#007cc2;fill-opacity:1;stroke-width:0.08786892" />
      <path
         inkscape:connector-curvature="0"
         id="path4672"
         d="m 28.322055,86.903769 c -1.354939,-0.01847 -2.741888,0.514454 -3.712629,1.485188 -1.922431,1.92243 -1.990688,5.065661 -0.153428,7.070705 l 0.510739,0.557242 v 1.809895 1.809725 h -2.372461 -2.372462 v -1.124619 c 0,-0.757623 -0.03452,-1.159142 -0.105548,-1.230166 -0.06523,-0.06526 -0.386236,-0.105547 -0.841617,-0.105547 h -0.736077 l 0.02146,-2.218686 c 0.01995,-2.061961 0.0088,-2.251092 -0.159438,-2.677429 -0.37542,-0.951634 -1.116638,-1.580346 -2.169264,-1.840101 -0.488358,-0.120516 -0.683875,-0.128981 -1.115347,-0.04871 -1.078248,0.200528 -1.844746,0.78499 -2.297121,1.751715 l -0.268757,0.574403 0.01785,2.229506 0.01785,2.229329 h -0.645801 c -0.385086,0 -0.688295,0.04264 -0.751174,0.105547 -0.06836,0.06834 -0.105548,0.423721 -0.105548,1.010491 v 0.904952 h -0.421666 c -0.231974,0 -0.46922,0.04756 -0.527213,0.105539 -0.1526816,0.152684 -0.1526816,13.783292 0,13.935972 0.08142,0.0814 4.875749,0.10537 21.044607,0.10537 h 20.939061 v 1.05443 1.05443 H 36.934414 c -11.692428,0 -15.207994,0.0243 -15.289193,0.10555 -0.07102,0.071 -0.105548,0.47254 -0.105548,1.23017 v 1.12461 h -3.281351 c -3.015591,0 -3.292272,0.0125 -3.415394,0.15377 -0.07368,0.0846 -0.653262,1.02898 -1.287826,2.09856 -0.919679,1.55015 -1.153797,2.01031 -1.153797,2.26863 0,0.34796 2.419585,8.98145 2.568452,9.16463 0.126092,0.1552 6.045927,0.1593 6.200937,0.005 0.07804,-0.078 0.105372,-0.91188 0.105372,-3.20721 v -3.10168 h 0.295705 c 0.272262,0 0.307893,-0.0329 0.451014,-0.41737 0.293324,-0.78792 0.92076,-1.91194 1.488622,-2.6668 1.718417,-2.28426 4.308662,-3.72508 7.276472,-4.04728 2.261065,-0.24547 4.81428,0.42377 6.806581,1.78416 0.931742,0.6362 2.161888,1.89805 2.749165,2.81987 l 0.483279,0.75855 2.548199,0.005 2.548198,0.005 0.22997,-0.41704 c 0.369428,-0.67024 1.260415,-1.80222 1.843531,-2.34208 2.200512,-2.03729 5.248601,-3.09246 8.053393,-2.78795 2.499749,0.27138 4.623409,1.27511 6.349217,3.00093 1.874113,1.87411 3.044059,4.42858 3.212019,7.0132 0.0273,0.42002 0.06774,0.85268 0.08976,0.96141 l 0.03999,0.19771 h 14.175735 14.175732 l 1.125473,1.4718 c 0.61897,0.80949 1.225526,1.58055 1.347896,1.71345 l -1.69e-4,-7.7e-4 0.222584,0.24163 h 5.501768 c 4.16196,0 5.52737,-0.0256 5.60713,-0.10538 0.0739,-0.0739 0.10555,-0.56041 0.10555,-1.62557 v -1.5202 h 3.42689 c 3.3683,0 3.42689,-0.003 3.42689,-0.17573 0,-0.0967 0.0395,-0.17574 0.0879,-0.17574 0.0485,0 0.0879,-0.2277 0.0879,-0.50748 0,-2.05139 0.74465,-4.40208 1.91664,-6.05008 1.76013,-2.47503 4.4198,-4.01689 7.5073,-4.35209 2.80479,-0.30451 5.85288,0.75067 8.05339,2.78795 0.58312,0.53986 1.4741,1.672 1.84352,2.34225 l 0.22998,0.41704 2.33625,0.002 2.33643,0.002 0.11,-0.24164 c 0.22955,-0.50437 0.95035,-1.49626 1.54303,-2.12327 1.14751,-1.21397 2.83204,-2.2676 4.42313,-2.76684 4.868,-1.52748 10.06666,0.66832 12.35743,5.21962 0.37845,0.75193 0.838,2.00112 0.838,2.27807 0,0.0821 0.12852,0.24284 0.28559,0.35731 0.15707,0.11447 1.08362,0.83377 2.05908,1.59829 1.37267,1.07584 1.83179,1.38994 2.03129,1.38994 0.14176,0 2.4539,-0.79083 5.1381,-1.75738 l 4.88033,-1.75738 h 2.27498 c 1.65232,0 2.30394,-0.0288 2.38051,-0.10537 0.0698,-0.0698 0.10555,-0.44685 0.10555,-1.11449 v -1.00912 l 1.31803,-2.61239 c 0.72492,-1.43686 1.31804,-2.70683 1.31804,-2.8221 0,-0.40957 -0.0665,-0.42047 -2.56588,-0.42047 h -2.35478 v -0.82033 -0.82052 l 0.5255,-0.95883 0.52549,-0.95901 0.002,-1.78621 0.002,-1.78638 -3.26179,-5.02346 c -1.79389,-2.76295 -3.35776,-5.15214 -3.47529,-5.30921 l -0.21366,-0.285567 H 161.24658 152.99 l -0.17711,0.285567 c -0.0975,0.15707 -1.13494,2.1931 -2.30535,4.52457 l -2.12791,4.23915 -14.73417,7.7e-4 -14.73418,7.7e-4 -0.29913,0.37344 c -0.16451,0.20539 -1.53741,2.08303 -3.05104,4.1724 l -2.75209,3.79879 -22.546615,0.0233 c -12.400606,0.0129 -22.553215,0.0233 -22.561384,0.0233 -0.0082,-1.4e-4 1.320149,-3.45998 2.952018,-7.68852 l 2.967124,-7.68836 38.091017,-0.0439 c 31.03215,-0.0358 38.11658,-0.065 38.22847,-0.1579 0.0756,-0.0627 0.70048,-1.1303 1.38874,-2.372457 l 1.25145,-2.258503 8.63998,0.04394 8.63999,0.04394 1.54182,2.236194 c 0.84796,1.229896 1.60618,2.307386 1.68496,2.394426 0.13531,0.14951 0.47692,0.15823 6.17897,0.15823 5.64825,0 6.04465,-0.01 6.17554,-0.15445 0.0769,-0.085 0.63896,-0.84617 1.24904,-1.69147 0.61007,-0.845329 1.14385,-1.549375 1.18623,-1.564489 0.0424,-0.01508 1.26576,0.910069 2.71862,2.055829 l 2.64173,2.08311 v 1.63913 c 0,1.15774 0.0309,1.6702 0.10537,1.74468 0.058,0.058 0.25997,0.10537 0.44878,0.10537 0.29107,0 0.33424,0.0234 0.28369,0.15377 -0.35313,0.9109 -0.41516,2.49658 -0.14296,3.65652 0.0923,0.39323 0.35706,1.79245 0.58831,3.10939 l 0.42047,2.39443 h 0.53802 0.53803 l 0.0971,0.7263 c 0.11519,0.86095 0.27638,1.36254 0.57972,1.80474 0.31889,0.46486 0.37778,0.77621 0.18673,0.98732 -0.36124,0.39916 -1.39003,0.046 -1.62867,-0.55913 -0.30482,-0.77294 -1.13314,-1.17247 -1.39938,-0.67498 -0.1219,0.22776 -0.0329,0.40307 0.306,0.60307 0.2258,0.13323 0.30379,0.2497 0.34993,0.52275 0.0801,0.47394 0.55068,1.00399 1.15328,1.29881 0.57696,0.28227 0.81126,0.28693 1.56671,0.0318 0.44075,-0.14888 0.58831,-0.24354 0.65953,-0.42321 0.0505,-0.12732 0.17146,-0.36929 0.26875,-0.53768 0.33117,-0.57315 0.16703,-1.58852 -0.30702,-1.89913 -0.22093,-0.14476 -0.43997,-0.59937 -0.5672,-1.17766 -0.15424,-0.70096 -0.15298,-0.70295 0.41789,-0.70295 h 0.50903 l 0.47898,-2.87771 c 0.43988,-2.64246 0.47951,-2.99264 0.47951,-4.28361 3.4e-4,-1.09039 -0.0319,-1.48971 -0.14314,-1.77934 -0.14183,-0.36913 -0.14121,-0.37344 0.0484,-0.37344 0.10549,0 0.23925,-0.0474 0.29724,-0.10537 0.08,-0.08 0.10555,-1.56801 0.10555,-6.15976 v -6.054376 l -0.49684,-0.935665 c -0.27323,-0.514615 -0.55608,-1.004858 -0.62864,-1.089434 -0.12212,-0.142348 -0.43451,-0.153769 -4.19797,-0.153769 h -4.06583 l -0.16011,0.204053 c -0.0881,0.112173 -0.23841,0.349418 -0.33398,0.527213 l -0.17367,0.32316 h -0.73573 -0.73573 l -0.6628,-0.593119 -0.66262,-0.593112 -59.16719,-0.02486 -59.167203,-0.02509 v -1.593652 c 0,-1.359631 -0.02147,-1.61737 -0.145533,-1.754462 -0.138421,-0.152945 -0.463028,-0.160634 -6.748231,-0.160634 -5.018441,0 -6.628277,0.0254 -6.708414,0.105548 -0.07058,0.07057 -0.105374,0.462776 -0.105374,1.186231 v 1.080684 h -9.60415 c -7.352674,0 -9.628791,0.02486 -9.709515,0.105547 -0.07921,0.07921 -0.105375,1.204778 -0.105375,4.525249 v 4.419702 H 33.315218 31.469971 V 97.723723 95.895636 L 31.78901,95.5929 c 1.182566,-1.122272 1.738707,-3.198355 1.303961,-4.867456 -0.433005,-1.662421 -1.80717,-3.104344 -3.442333,-3.612241 -0.428838,-0.135 -0.876937,-0.202407 -1.328583,-0.208549 z M 155.53979,102.5362 h 6.01902 6.01902 v 4.04197 4.04196 h -6.01902 -6.01902 v -4.04196 z m 13.7127,0.28934 c 0.008,-6e-4 0.0168,0.007 0.0262,0.0206 0.0928,0.13479 4.45977,7.18702 4.74596,7.66416 0.0521,0.0868 -0.45061,0.10984 -2.39959,0.10984 h -2.46565 v -3.97367 c 0,-3.05677 0.0149,-3.81509 0.093,-3.82092 z m 26.67079,3.49863 c 0.15726,-2.5e-4 0.3616,0.004 0.63053,0.01 l 1.11398,0.0246 0.16818,0.43934 c 0.20864,0.54514 0.29203,2.06643 0.15395,2.80615 -0.128,0.68566 -0.40071,1.23362 -0.7311,1.46888 -0.26592,0.18934 -0.94845,0.29812 -1.21129,0.19307 -0.21688,-0.0867 -0.62145,-0.49598 -0.7685,-0.77761 -0.50672,-0.97039 -0.49022,-3.18409 0.0297,-3.97864 0.0949,-0.14505 0.14279,-0.18476 0.61457,-0.18552 z"
         style="fill:#007cc2;fill-opacity:1;stroke-width:0.08786892" />
      <path
         inkscape:connector-curvature="0"
         id="path4664"
         d="M 0.97842224,52.143381 V 2.717112 H 5.4686911 9.9589592 L 9.903696,20.971878 C 9.873306,31.012004 9.826585,39.473777 9.7998803,39.775828 l -0.048552,0.549184 h 4.7166067 4.71661 l -0.05005,-0.505249 c -0.02754,-0.277886 -0.07586,-8.739659 -0.107402,-18.80395 L 18.969741,2.717112 h 4.096809 4.096806 v 40.156095 40.156105 h -0.90416 c -1.834597,0 -2.49046,0.327377 -4.398305,2.195429 -0.765764,0.749797 -1.528406,1.548508 -1.694755,1.77491 l -0.302457,0.411646 -0.435968,-0.323776 -0.435972,-0.323784 -8.9e-5,-11.752466 -10e-5,-11.752467 -4.063938,7.7e-4 c -2.235166,0 -4.271529,0.0257 -4.525249,0.05618 l -0.4613141,0.05541 V 76.06883 88.766511 l -0.388016,0.414824 C 9.3396235,89.409484 9.052962,89.809001 8.9160092,90.069133 8.6716113,90.533364 8.6664736,90.573174 8.6384611,92.220081 l -0.028528,1.677959 -0.7403376,0.736491 -0.7403376,0.736491 v 0.487972 c 0,0.479861 -0.00877,0.496646 -0.527213,1.009683 L 6.074831,97.390388 v 2.089635 2.089647 H 3.5266352 0.97843555 V 52.143273 Z"
         style="fill:#007cc2;fill-opacity:1;stroke-width:0.08786892" />
      <path
         inkscape:connector-curvature="0"
         id="path4662"
         d="m 203.43068,96.500082 -0.002,-4.41056 -0.56824,-1.037311 c -0.51432,-0.938881 -0.67067,-1.138594 -1.64755,-2.10438 l -1.0793,-1.067055 -7.53942,-0.04325 c -4.14668,-0.02378 -7.55667,-0.06057 -7.57775,-0.08162 -0.0585,-0.05857 -0.3671,-2.81456 -0.51934,-4.638685 -0.2639,-3.162131 -0.57527,-9.56711 -0.57527,-11.833964 v -1.082775 h 4.21182 4.21182 l 0.0351,5.513774 c 0.0384,6.032121 0.0207,5.816555 0.58818,7.167344 0.79799,1.899543 1.81306,2.641521 3.6242,2.649163 l 0.67702,0.0031 0.40623,-0.395408 c 0.76122,-0.740963 1.87013,-2.607091 2.55848,-4.305582 l 0.33832,-0.834751 -0.003,-1.537719 c -0.003,-1.594156 -0.10519,-2.496845 -0.53038,-4.700978 -0.60692,-3.146031 -1.45953,-5.360259 -2.69577,-7.000863 -0.2808,-0.372659 -1.053,-1.169693 -1.716,-1.771201 -3.52921,-3.201856 -6.22584,-6.451527 -7.44858,-8.976157 -1.06029,-2.189265 -2.44951,-6.622257 -2.93303,-9.359345 -0.57588,-3.259898 -0.64974,-5.112196 -0.59561,-14.937719 0.0439,-7.95794 0.0891,-9.514914 0.37442,-12.872794 0.64467,-7.587559 2.25591,-12.4983501 5.0799,-15.4826401 2.0131,-2.1273679 4.22884,-3.00913963 6.92428,-2.75556455 1.34755,0.12677215 2.32141,0.37472159 3.30877,0.84244635 3.77797,1.7896398 5.71992,5.7992582 6.59932,13.6258783 0.40776,3.628986 0.5827,7.013386 0.82051,15.87403 l 0.0206,0.76906 -4.19574,-1.77e-4 -4.19571,-2.77e-4 v -0.249735 c 0,-0.748181 -0.27419,-6.276318 -0.35588,-7.17519 -0.29349,-3.229099 -1.15381,-5.354736 -2.43101,-6.006312 -0.91062,-0.464562 -1.58474,-0.136169 -2.12455,1.034979 -0.36186,0.785067 -0.70584,2.164723 -1.06422,4.26838 l -0.28441,1.669509 0.0555,2.871047 c 0.0618,3.198494 0.14155,3.872088 0.63222,5.339822 0.6102,1.825279 1.44978,3.023677 3.40309,4.857536 3.87928,3.642039 5.73659,5.705555 6.91318,7.68077 0.90374,1.517149 2.74144,6.097784 3.41458,8.511173 0.67875,2.433505 1.09624,5.698821 1.33014,10.403389 0.11434,2.299783 0.11498,9.784571 7.7e-4,12.178923 -0.51801,10.88509 -2.27775,18.883301 -5.13282,23.329207 l -0.31035,0.48328 -0.002,-4.410553 z"
         style="fill:#007cc2;fill-opacity:1;stroke-width:0.08786892" />
      <path
         inkscape:connector-curvature="0"
         id="path4660"
         d="m 91.329644,87.708337 c -3.395035,-0.01278 -6.172787,-0.04363 -6.172787,-0.06865 0,-0.02501 -0.156516,-0.874945 -0.347809,-1.888761 -1.797659,-9.527008 -2.549965,-20.568919 -2.436437,-35.760359 0.04933,-6.60298 0.09891,-8.349292 0.369103,-13.0046 0.664498,-11.448942 2.174389,-20.732952 4.433639,-27.2613753 1.233814,-3.5652501 2.46809,-5.7931015 4.127602,-7.4502512 0.736269,-0.7352138 1.074258,-1.0019101 1.64032,-1.29430258 1.259417,-0.65052969 2.54143,-0.79564852 4.13098,-0.46759394 3.723795,0.76850562 6.637175,3.89394342 8.280045,8.88267712 1.10178,3.3456599 1.67605,7.5397139 1.94307,14.1908309 0.0963,2.398597 0.26366,11.452505 0.26517,14.345577 l 7.7e-4,1.69245 -3.62459,-0.02293 -3.62458,-0.02293 -0.0559,-3.295083 c -0.0913,-5.376669 -0.370198,-7.621651 -1.319285,-10.61887 -0.729734,-2.304524 -1.509545,-3.440609 -2.574006,-3.750063 -0.636277,-0.184968 -1.137225,-0.122755 -1.874178,0.232765 -1.301044,0.627651 -1.865827,2.03238 -2.398012,5.964356 -0.147181,1.087379 -0.34283,2.431773 -0.434772,2.987545 -0.594743,3.594779 -0.754776,6.220377 -0.888274,14.573394 -0.167621,10.488281 0.08606,18.405865 0.762741,23.805967 0.232204,1.853058 1.312896,8.291376 1.657912,9.877186 0.491505,2.25908 1.018302,3.592377 1.642043,4.155891 0.330371,0.298465 0.488657,0.34968 0.956513,0.309508 0.854413,-0.07342 1.720747,-1.33232 2.449273,-3.559278 0.454927,-1.390577 1.373877,-5.042131 1.584679,-6.296862 0.238726,-1.42089 0.288586,-2.25915 0.349436,-5.872989 l 0.054,-3.207213 4.05255,-0.02286 4.05257,-0.02286 0.0618,3.361852 c 0.10593,5.759099 -0.15558,10.662129 -0.78209,14.663536 -0.19796,1.26432 -0.71759,3.823397 -0.93013,4.580636 l -0.0925,0.329509 -4.54309,-0.02132 c -2.4987,-0.01178 -7.320843,-0.03178 -10.715879,-0.04456 z"
         style="fill:#007cc2;fill-opacity:1;stroke-width:0.08786892" />
      <path
         inkscape:connector-curvature="0"
         id="path4658"
         d="m 113.06653,87.488654 c -0.31479,-1.722225 -0.75229,-5.2916 -0.972,-7.930166 -0.4755,-5.710106 -0.48616,-6.649542 -0.4877,-42.989873 l -0.002,-33.851503 h 4.17377 4.17378 l 7.7e-4,32.357734 c 0,20.472305 0.0329,32.970963 0.0886,34.027236 0.17958,3.400382 0.42543,5.081442 1.1883,8.125332 0.72149,2.878789 1.13848,3.921486 1.81138,4.529405 0.28142,0.254244 0.40571,0.305937 0.73574,0.305937 0.34171,0 0.45077,-0.04948 0.7815,-0.354305 0.70283,-0.647844 1.22136,-1.957846 1.98139,-5.005707 0.56856,-2.280067 0.69752,-3.095116 0.9871,-6.238693 0.0736,-0.798417 0.10956,-10.198564 0.13188,-34.422649 l 0.0307,-33.32429 h 4.17455 4.17456 l -0.0307,35.037734 c -0.0228,26.022244 -0.0581,35.501224 -0.13699,36.839046 -0.28349,4.806433 -0.66057,8.749245 -1.11292,11.636799 -0.12062,0.770037 -0.21932,1.432357 -0.21932,1.471805 0,0.03948 -4.8196,0.07173 -10.71023,0.07173 h -10.71023 l -0.0522,-0.285582 z"
         style="fill:#007cc2;fill-opacity:1;stroke-width:0.08786892" />
      <path
         inkscape:connector-curvature="0"
         id="path4656"
         d="M 140.33854,45.289604 V 2.8049821 h 4.24929 4.24929 l 0.056,6.304592 c 0.0308,3.4675299 0.0815,20.3515429 0.11268,37.5200299 l 0.0566,31.215432 h 4.20526 4.20523 v 4.9646 4.9646 h -8.56722 -8.56721 z"
         style="fill:#007cc2;fill-opacity:1;stroke-width:0.08786892" />
      <path
         inkscape:connector-curvature="0"
         id="path4654"
         d="M 160.81199,45.333539 V 2.8928522 h 10.28067 10.28066 v 9.0285268 c 0,4.965693 -0.0262,9.82924 -0.0579,10.807878 l -0.0576,1.77935 h -6.09294 -6.09296 v 9.401972 9.401979 h 5.18427 5.18427 v 9.533776 9.533777 h -5.18427 -5.18427 v 9.577709 9.577715 h 6.32657 6.32656 v 3.119351 3.11935 H 171.26863 160.81222 V 45.333539 Z"
         style="fill:#007cc2;fill-opacity:1;stroke-width:0.08786892" />
      <path
         inkscape:connector-curvature="0"
         id="path4652"
         d="M 55.808898,2.8858029 V 43.528785 84.171762 h 4.11611 4.11611 l 0.05732,-1.383935 c 0.03156,-0.761164 0.05767,-4.754814 0.05767,-8.874763 v -7.490821 l 0.54918,0.0015 c 0.302051,7.69e-4 1.141198,0.04017 1.864641,0.08701 1.128403,0.07311 1.380686,0.117091 1.77557,0.310285 1.398469,0.684214 1.949303,2.655512 2.405068,8.607375 0.05182,0.676595 0.116873,3.134399 0.144503,5.46178 l 0.05028,4.23161 0.603413,0.598776 0.603415,0.598952 v 0.683214 h 3.46e-4 v 0.683391 h 3.422766 3.422774 l -0.04448,-7.139351 c -0.05349,-8.58935 -0.175656,-15.543507 -0.298272,-16.980674 -0.259132,-3.03736 -0.879648,-5.617022 -1.71688,-7.137634 -0.225177,-0.408991 -0.609272,-0.871914 -1.229481,-1.481925 l -0.902027,-0.887274 0.525674,-0.870105 c 1.601471,-2.651549 2.212524,-4.497506 2.746248,-8.295207 0.577443,-4.108801 0.707755,-6.640127 0.707755,-13.751488 0,-7.226312 -0.126995,-9.765819 -0.706724,-14.134536 C 76.956706,8.5441056 74.631449,4.3776324 70.340531,3.1408248 69.651022,2.942082 69.620806,2.94112 62.728542,2.913423 Z m 7.995729,20.4657331 1.919044,0.02932 1.919043,0.02932 0.49083,0.326077 c 0.796629,0.529175 1.803719,1.902075 2.532581,3.452284 1.086765,2.311435 1.731359,8.345044 1.267235,11.862304 -0.529587,4.013381 -2.006937,7.415489 -3.599193,8.288511 -0.224813,0.123271 -0.610394,0.151545 -2.398719,0.17574 l -2.130821,0.02886 V 35.447729 Z"
         style="fill:#007cc2;fill-opacity:1;stroke-width:0.08786892" />
      <path
         inkscape:connector-curvature="0"
         id="path4646"
         d="M 34.412548,85.155571 C 33.203872,83.965577 32.92377,83.734758 32.415892,83.510188 l -0.590751,-0.261201 -0.0023,-40.178068 -0.0023,-40.1780668 H 42.101187 52.381851 V 13.799312 24.70578 L 46.99988,24.64937 C 44.039796,24.61836 41.271923,24.5698 40.849056,24.541452 l -0.768855,-0.05156 v 9.411307 9.411306 h 5.184268 5.184267 v 9.533776 9.533777 h -5.184267 -5.184268 v 9.577709 9.577715 h 6.326562 6.326563 v 1.341378 1.341377 l -1.054428,1.051679 c -0.579934,0.57842 -1.054426,1.101724 -1.054426,1.162897 0,0.08883 -1.489263,0.110765 -7.402955,0.109042 l -7.402958,-0.0023 -1.405902,-1.384174 z"
         style="fill:#007cc2;fill-opacity:1;stroke-width:0.08786892" />
    </g>
  </g>
</svg>
