<?xml version="1.0" encoding="UTF-8" standalone="no"?>
<!-- Created with Inkscape (http://www.inkscape.org/) -->

<svg
   xmlns:dc="http://purl.org/dc/elements/1.1/"
   xmlns:cc="http://creativecommons.org/ns#"
   xmlns:rdf="http://www.w3.org/1999/02/22-rdf-syntax-ns#"
   xmlns:svg="http://www.w3.org/2000/svg"
   xmlns="http://www.w3.org/2000/svg"
   xmlns:sodipodi="http://sodipodi.sourceforge.net/DTD/sodipodi-0.dtd"
   xmlns:inkscape="http://www.inkscape.org/namespaces/inkscape"
   width="893.79999"
   height="226.8"
   viewBox="0 0 236.48457 60.007503"
   version="1.1"
   id="svg8"
   inkscape:version="0.92.1 r"
   sodipodi:docname="gruashercules.svg">
  <defs
     id="defs2">
    <clipPath
       id="clipPath4528"
       clipPathUnits="userSpaceOnUse">
      <path
         inkscape:connector-curvature="0"
         id="path4526"
         d="M 0,181.839 H 713.912 V 0 H 0 Z" />
    </clipPath>
    <clipPath
       id="clipPath4624"
       clipPathUnits="userSpaceOnUse">
      <path
         inkscape:connector-curvature="0"
         id="path4622"
         d="M 0,207.889 H 816.185 V 0 H 0 Z" />
    </clipPath>
  </defs>
  <sodipodi:namedview
     id="base"
     pagecolor="#ffffff"
     bordercolor="#666666"
     borderopacity="1.0"
     inkscape:pageopacity="0.0"
     inkscape:pageshadow="2"
     inkscape:zoom="0.5"
     inkscape:cx="598.90414"
     inkscape:cy="111.49579"
     inkscape:document-units="mm"
     inkscape:current-layer="layer1"
     showgrid="false"
     units="px"
     inkscape:window-width="1920"
     inkscape:window-height="1016"
     inkscape:window-x="0"
     inkscape:window-y="27"
     inkscape:window-maximized="1" />
  <metadata
     id="metadata5">
    <rdf:RDF>
      <cc:Work
         rdf:about="">
        <dc:format>image/svg+xml</dc:format>
        <dc:type
           rdf:resource="http://purl.org/dc/dcmitype/StillImage" />
        <dc:title></dc:title>
      </cc:Work>
    </rdf:RDF>
  </metadata>
  <g
     inkscape:label="Capa 1"
     inkscape:groupmode="layer"
     id="layer1"
     transform="translate(0,-236.99244)">
    <g
       transform="matrix(0.28859521,0,0,-0.28859521,0.6269238,296.99729)"
       inkscape:label="Logotipos Hercules"
       id="g4608">
      <g
         transform="translate(89.9739,207.8892)"
         id="g4610">
        <path
           inkscape:connector-curvature="0"
           id="path4612"
           style="fill:#001f5b;fill-opacity:1;fill-rule:nonzero;stroke:none"
           d="M 0,0 -89.974,-51.841 V -155.873 L 0,-207.889 90.149,-155.873 V -51.841 Z M 0,-24.251 39.89,-47.272 H 16.87 v -63.263 h -33.565 v 63.263 h -23.02 z m 52.543,-30.401 16.518,-9.49 v -79.605 l -16.518,-9.491 z m -121.43,-89.095 v 79.605 l 16.344,9.49 v -98.586 z m 28.995,-16.695 h 23.197 v 17.221 H 16.87 v -17.221 H 40.065 L 0,-183.462 Z" />
      </g>
      <g
         transform="translate(266.5309,58.0084)"
         id="g4614">
        <path
           inkscape:connector-curvature="0"
           id="path4616"
           style="fill:#001f5b;fill-opacity:1;fill-rule:nonzero;stroke:none"
           d="m 0,0 h -74.047 v 91.872 h 73.36 V 68.423 H -45.662 V 56.494 H -4.389 V 35.378 H -45.662 V 23.447 H 0 Z" />
      </g>
      <g
         id="g4618">
        <g
           clip-path="url(#clipPath4624)"
           id="g4620">
          <g
             transform="translate(304.7765,108.1944)"
             id="g4626">
            <path
               inkscape:connector-curvature="0"
               id="path4628"
               style="fill:#001f5b;fill-opacity:1;fill-rule:nonzero;stroke:none"
               d="m 0,0 h 15.632 c 7.131,0 11.518,3.702 11.518,9.599 0,5.348 -4.387,9.051 -11.518,9.051 H 0 Z M 25.779,-50.186 1.92,-21.938 H 0 v -28.248 h -28.383 v 91.872 h 50.186 c 19.883,0 33.183,-12.615 33.183,-31.401 0,-14.535 -8.088,-25.504 -21.254,-30.03 l 26.055,-30.441 z" />
          </g>
          <g
             transform="translate(464.7863,91.8773)"
             id="g4630">
            <path
               inkscape:connector-curvature="0"
               id="path4632"
               style="fill:#001f5b;fill-opacity:1;fill-rule:nonzero;stroke:none"
               d="m 0,0 c -3.838,-22.076 -21.938,-35.926 -47.855,-35.926 -27.837,0 -49.64,21.117 -49.64,47.993 0,26.875 21.803,47.993 49.64,47.993 23.448,0 43.606,-13.575 47.72,-34.967 l -28.386,-6.581 c -2.331,10.558 -9.187,16.18 -19.334,16.18 -11.791,0 -21.254,-9.736 -21.254,-22.625 0,-12.889 9.463,-22.625 21.254,-22.625 10.009,0 16.865,5.897 19.472,17.141 z" />
          </g>
          <g
             transform="translate(560.6227,99.6931)"
             id="g4634">
            <path
               inkscape:connector-curvature="0"
               id="path4636"
               style="fill:#001f5b;fill-opacity:1;fill-rule:nonzero;stroke:none"
               d="m 0,0 c 0,-27.013 -17.003,-43.741 -42.508,-43.741 -26.193,0 -43.607,16.728 -43.607,43.741 v 50.187 h 28.521 V 0 c 0,-11.791 6.034,-18.374 15.086,-18.374 8.365,0 13.987,6.583 13.987,18.374 V 50.187 H 0 Z" />
          </g>
          <g
             transform="translate(642.7449,58.0084)"
             id="g4638">
            <path
               inkscape:connector-curvature="0"
               id="path4640"
               style="fill:#001f5b;fill-opacity:1;fill-rule:nonzero;stroke:none"
               d="m 0,0 h -70.48 v 91.872 h 28.383 V 24.133 H 0 Z" />
          </g>
          <g
             transform="translate(725.692,58.0084)"
             id="g4642">
            <path
               inkscape:connector-curvature="0"
               id="path4644"
               style="fill:#001f5b;fill-opacity:1;fill-rule:nonzero;stroke:none"
               d="M 0,0 H -74.045 V 91.872 H -0.684 V 68.423 H -45.662 V 56.494 H -4.387 V 35.378 H -45.662 V 23.447 H 0 Z" />
          </g>
          <g
             transform="translate(815.4976,125.1986)"
             id="g4646">
            <path
               inkscape:connector-curvature="0"
               id="path4648"
               style="fill:#001f5b;fill-opacity:1;fill-rule:nonzero;stroke:none"
               d="M 0,0 -27.561,-5.623 C -29.619,3.153 -36.064,5.21 -40.45,5.21 c -4.938,0 -8.503,-2.331 -8.503,-6.307 0,-2.194 0.822,-4.251 4.525,-5.073 l 18.238,-4.663 c 17.414,-4.388 26.877,-12.478 26.877,-27.424 0,-22.352 -21.53,-30.99 -39.904,-30.99 -23.036,0 -40.177,11.382 -42.781,28.659 l 28.794,5.348 c 2.058,-8.09 7.131,-11.518 14.398,-11.518 5.212,0 9.463,2.056 9.463,6.306 0,2.195 -1.098,4.114 -5.212,5.212 l -18.922,4.661 c -16.457,3.977 -25.506,12.204 -25.506,26.877 0,20.019 17.003,30.441 38.533,30.441 C -18.374,26.739 -3.291,17.277 0,0" />
          </g>
          <g
             transform="translate(217.6628,158.1971)"
             id="g4650">
            <path
               inkscape:connector-curvature="0"
               id="path4652"
               style="fill:#001f5b;fill-opacity:1;fill-rule:nonzero;stroke:none"
               d="M 0,0 10.808,22.722 H 44.337 L 26.049,0 Z" />
          </g>
          <g
             transform="translate(211.1657,30.4038)"
             id="g4654">
            <path
               inkscape:connector-curvature="0"
               id="path4656"
               style="fill:#001f5b;fill-opacity:1;fill-rule:nonzero;stroke:none"
               d="m 0,0 c 0.05,-0.586 0.076,-1.07 0.076,-1.478 0,-5.072 -3.62,-8.87 -8.665,-8.87 -5.099,0 -9.074,3.899 -9.074,8.921 0,4.994 3.95,8.92 8.972,8.92 3.594,0 6.982,-1.683 8.206,-5.149 L -3.594,1.249 c -1.249,2.396 -3.237,2.982 -5.097,2.982 -3.059,0 -5.455,-2.446 -5.455,-5.658 0,-3.237 2.472,-5.684 5.658,-5.684 2.6,0 4.536,1.528 5.123,3.95 H -9.354 V 0 Z" />
          </g>
          <g
             transform="translate(232.4556,29.8426)"
             id="g4658">
            <path
               inkscape:connector-curvature="0"
               id="path4660"
               style="fill:#001f5b;fill-opacity:1;fill-rule:nonzero;stroke:none"
               d="M 0,0 C 1.606,0 2.676,0.918 2.676,2.268 2.676,3.62 1.606,4.536 0,4.536 H -4.715 V 0 Z m 2.726,-9.404 -5.631,6.27 h -1.81 v -6.27 H -8.181 V 7.672 H 0 c 3.67,0 6.117,-2.167 6.117,-5.404 0,-2.854 -1.913,-4.893 -4.894,-5.326 l 5.734,-6.346 z" />
          </g>
          <g
             transform="translate(257.3631,39.2467)"
             id="g4662">
            <path
               inkscape:connector-curvature="0"
               id="path4664"
               style="fill:#001f5b;fill-opacity:1;fill-rule:nonzero;stroke:none"
               d="M 0,0 1.682,3.67 H 5.631 L 2.854,0 Z m 8.767,-11.163 c 0,-4.791 -2.93,-8.028 -7.34,-8.028 -4.511,0 -7.518,3.237 -7.518,8.028 v 9.431 h 3.466 v -9.431 c 0,-2.855 1.606,-4.715 4.052,-4.715 2.319,0 3.874,1.86 3.874,4.715 v 9.431 h 3.466 z" />
          </g>
          <g
             transform="translate(286.8824,33.3087)"
             id="g4666">
            <path
               inkscape:connector-curvature="0"
               id="path4668"
               style="fill:#001f5b;fill-opacity:1;fill-rule:nonzero;stroke:none"
               d="M 0,0 -2.497,-6.091 H 2.472 Z M 5.251,-12.87 3.773,-9.225 H -3.771 L -5.276,-12.87 H -9.022 L -1.631,4.206 H 1.606 L 8.996,-12.87 Z" />
          </g>
          <g
             transform="translate(320.6347,32.9767)"
             id="g4670">
            <path
               inkscape:connector-curvature="0"
               id="path4672"
               style="fill:#001f5b;fill-opacity:1;fill-rule:nonzero;stroke:none"
               d="m 0,0 -3.466,-0.713 c -0.256,1.606 -1.656,2.651 -3.365,2.651 -1.732,0 -2.777,-0.969 -2.777,-2.115 0,-0.868 0.381,-1.479 1.707,-1.734 l 3.67,-0.738 c 2.779,-0.586 4.485,-2.244 4.485,-4.893 0,-3.315 -2.728,-5.379 -6.778,-5.379 -3.569,0 -6.704,1.657 -7.137,5.072 l 3.645,0.74 c 0.458,-1.938 1.886,-2.779 3.822,-2.779 1.988,0 3.033,0.944 3.033,2.167 0,0.967 -0.459,1.554 -1.989,1.861 l -3.617,0.687 c -2.039,0.433 -4.486,1.555 -4.486,4.893 0,3.059 2.497,5.201 6.499,5.201 C -3.289,4.921 -0.664,3.033 0,0" />
          </g>
          <g
             transform="translate(359.2688,20.4385)"
             id="g4674">
            <path
               inkscape:connector-curvature="0"
               id="path4676"
               style="fill:#001f5b;fill-opacity:1;fill-rule:nonzero;stroke:none"
               d="m 0,0 h -3.466 v 5.404 l -6.754,11.672 h 3.824 l 4.664,-8.054 4.639,8.054 H 6.882 L 0,5.455 Z" />
          </g>
          <g
             transform="translate(413.8373,20.4385)"
             id="g4678">
            <path
               inkscape:connector-curvature="0"
               id="path4680"
               style="fill:#001f5b;fill-opacity:1;fill-rule:nonzero;stroke:none"
               d="M 0,0 H -3.363 V 9.812 L -8.717,0 h -1.553 l -5.379,9.812 V 0 h -3.363 v 17.076 h 3.033 l 6.472,-11.8 6.499,11.8 H 0 Z" />
          </g>
          <g
             transform="translate(434.8748,33.3087)"
             id="g4682">
            <path
               inkscape:connector-curvature="0"
               id="path4684"
               style="fill:#001f5b;fill-opacity:1;fill-rule:nonzero;stroke:none"
               d="M 0,0 -2.497,-6.091 H 2.472 Z M 5.251,-12.87 3.773,-9.225 H -3.771 L -5.276,-12.87 H -9.022 L -1.631,4.206 H 1.606 L 8.996,-12.87 Z" />
          </g>
          <g
             transform="translate(471.7107,20.4385)"
             id="g4686">
            <path
               inkscape:connector-curvature="0"
               id="path4688"
               style="fill:#001f5b;fill-opacity:1;fill-rule:nonzero;stroke:none"
               d="M 0,0 H -2.905 L -12.36,10.96 V 0 h -3.466 v 17.076 h 2.905 L -3.466,5.812 V 17.076 H 0 Z" />
          </g>
          <g
             transform="translate(491.2685,23.5725)"
             id="g4690">
            <path
               inkscape:connector-curvature="0"
               id="path4692"
               style="fill:#001f5b;fill-opacity:1;fill-rule:nonzero;stroke:none"
               d="M 0,0 H 3.569 V -3.134 H -7.033 V 0 h 3.567 v 10.806 h -3.567 v 3.136 H 3.569 V 10.806 H 0 Z" />
          </g>
          <g
             transform="translate(520.8305,28.9513)"
             id="g4694">
            <path
               inkscape:connector-curvature="0"
               id="path4696"
               style="fill:#001f5b;fill-opacity:1;fill-rule:nonzero;stroke:none"
               d="m 0,0 c 0,3.262 -2.421,5.684 -5.505,5.684 -3.084,0 -5.505,-2.422 -5.505,-5.684 0,-3.262 2.421,-5.633 5.505,-5.633 C -2.421,-5.633 0,-3.262 0,0 m 3.491,0 c 0,-4.971 -3.949,-8.895 -8.996,-8.895 -5.047,0 -8.996,3.924 -8.996,8.895 0,4.969 3.949,8.946 8.996,8.946 5.047,0 8.996,-3.977 8.996,-8.946" />
          </g>
          <g
             transform="translate(545.4098,23.3958)"
             id="g4698">
            <path
               inkscape:connector-curvature="0"
               id="path4700"
               style="fill:#001f5b;fill-opacity:1;fill-rule:nonzero;stroke:none"
               d="m 0,0 c 1.555,0 2.346,0.841 2.346,2.115 0,1.299 -0.919,2.114 -2.218,2.114 H -4.587 V 0 Z m -4.587,6.983 h 4.333 c 1.376,0 2.293,0.866 2.293,2.19 0,1.198 -0.942,1.988 -2.064,1.988 H -4.587 Z M 2.905,5.759 C 4.307,5.581 5.888,4.204 5.888,1.783 c 0,-2.777 -1.707,-4.74 -5.505,-4.74 h -8.436 v 17.076 h 8.41 c 3.084,0 5.047,-1.886 5.047,-4.74 0,-2.167 -1.478,-3.34 -2.499,-3.519 z" />
          </g>
          <g
             transform="translate(572.5601,29.8426)"
             id="g4702">
            <path
               inkscape:connector-curvature="0"
               id="path4704"
               style="fill:#001f5b;fill-opacity:1;fill-rule:nonzero;stroke:none"
               d="M 0,0 C 1.606,0 2.676,0.918 2.676,2.268 2.676,3.62 1.606,4.536 0,4.536 H -4.715 V 0 Z m 2.726,-9.404 -5.631,6.27 h -1.81 v -6.27 H -8.181 V 7.672 H 0 c 3.67,0 6.117,-2.167 6.117,-5.404 0,-2.854 -1.911,-4.893 -4.894,-5.326 l 5.734,-6.346 z" />
          </g>
          <g
             transform="translate(599.2753,33.3087)"
             id="g4706">
            <path
               inkscape:connector-curvature="0"
               id="path4708"
               style="fill:#001f5b;fill-opacity:1;fill-rule:nonzero;stroke:none"
               d="M 0,0 -2.497,-6.091 H 2.472 Z M 5.251,-12.87 3.773,-9.225 H -3.771 L -5.276,-12.87 H -9.022 L -1.631,4.206 H 1.606 L 8.996,-12.87 Z" />
          </g>
          <g
             transform="translate(633.0277,32.9767)"
             id="g4710">
            <path
               inkscape:connector-curvature="0"
               id="path4712"
               style="fill:#001f5b;fill-opacity:1;fill-rule:nonzero;stroke:none"
               d="m 0,0 -3.466,-0.713 c -0.256,1.606 -1.656,2.651 -3.365,2.651 -1.732,0 -2.777,-0.969 -2.777,-2.115 0,-0.868 0.381,-1.479 1.707,-1.734 l 3.67,-0.738 c 2.779,-0.586 4.485,-2.244 4.485,-4.893 0,-3.315 -2.728,-5.379 -6.778,-5.379 -3.569,0 -6.704,1.657 -7.137,5.072 l 3.645,0.74 c 0.458,-1.938 1.886,-2.779 3.822,-2.779 1.988,0 3.033,0.944 3.033,2.167 0,0.967 -0.459,1.554 -1.989,1.861 l -3.617,0.687 c -2.039,0.433 -4.486,1.555 -4.486,4.893 0,3.059 2.497,5.201 6.499,5.201 C -3.289,4.921 -0.664,3.033 0,0" />
          </g>
        </g>
      </g>
    </g>
  </g>
</svg>
